<svg width="201" height="52" viewBox="0 0 201 52" fill="none" xmlns="http://www.w3.org/2000/svg">
<path d="M14.1188 41.92C12.5188 41.92 11.1854 41.3867 10.1188 40.32C9.07875 39.28 8.55875 38.0667 8.55875 36.68C8.55875 35.2667 8.89208 33.96 9.55875 32.76C10.2254 31.5333 11.1721 30.4 12.3988 29.36C13.6521 28.32 15.2788 27.4667 17.2788 26.8C19.2788 26.1067 21.4921 25.72 23.9188 25.64C25.3321 22.1467 26.5854 18.24 27.6788 13.92C27.7054 13.76 27.7188 13.56 27.7188 13.32C27.7188 13.0533 27.5854 12.8267 27.3188 12.64V12.24C29.6121 11.8133 31.7054 11.6 33.5988 11.6L35.9988 11.76C36.6921 12.9867 37.0788 14.6933 37.1588 16.88C37.2388 19.04 37.2921 22.8 37.3188 28.16C40.1988 29.4133 42.6654 31 44.7188 32.92C44.6121 33.2667 44.3988 33.6133 44.0788 33.96C43.7854 34.28 43.5054 34.52 43.2388 34.68L42.8388 34.92C41.2654 33.3733 39.4388 32.0533 37.3588 30.96C37.4121 32.48 37.5588 33.76 37.7988 34.8C38.1721 36.5067 38.6121 37.36 39.1188 37.36C39.4121 37.36 39.7588 37.2933 40.1588 37.16L40.7588 38.72C38.9188 39.8933 37.1588 40.48 35.4788 40.48C32.7054 40.48 31.3188 38.3867 31.3188 34.2V28.96C29.4521 28.5067 27.7588 28.2267 26.2388 28.12C22.7721 37.32 18.7321 41.92 14.1188 41.92ZM22.9188 28.08C19.9054 28.32 17.3988 29.3733 15.3988 31.24C13.3988 33.1067 12.3988 34.8533 12.3988 36.48C12.3988 38.1067 13.0254 38.92 14.2788 38.92C16.8388 38.92 19.7188 35.3067 22.9188 28.08ZM30.8788 14.8C30.8254 14.7733 30.7188 14.76 30.5588 14.76C30.3988 14.76 30.2921 14.7733 30.2388 14.8C29.9988 16.8267 28.9588 20.4667 27.1188 25.72C28.4254 25.8 29.8254 25.9867 31.3188 26.28C31.3188 19.72 31.1721 15.8933 30.8788 14.8ZM44.5847 40.48C43.678 40.48 42.918 40.1733 42.3047 39.56C41.718 38.9467 41.4247 38.0933 41.4247 37C41.4247 35.88 42.078 32.3467 43.3847 26.4C44.718 20.4267 45.3847 16.12 45.3847 13.48L45.1447 11.72C47.2247 11 49.1714 10.64 50.9847 10.64C51.2514 11.0133 51.3847 11.6667 51.3847 12.6C51.3847 14.7333 50.7047 18.8667 49.3447 25C48.0114 31.1067 47.3447 34.6667 47.3447 35.68C47.3447 36.6667 47.4647 37.16 47.7047 37.16L50.5047 36.16L51.2247 37.56C50.318 38.28 49.2114 38.9467 47.9047 39.56C46.6247 40.1733 45.518 40.48 44.5847 40.48ZM55.2097 40.48C54.303 40.48 53.543 40.1733 52.9297 39.56C52.343 38.9467 52.0497 38.0933 52.0497 37C52.0497 35.88 52.703 32.3467 54.0097 26.4C55.343 20.4267 56.0097 16.12 56.0097 13.48L55.7697 11.72C57.8497 11 59.7964 10.64 61.6097 10.64C61.8764 11.0133 62.0097 11.6667 62.0097 12.6C62.0097 14.7333 61.3297 18.8667 59.9697 25C58.6364 31.1067 57.9697 34.6667 57.9697 35.68C57.9697 36.6667 58.0897 37.16 58.3297 37.16L61.1297 36.16L61.8497 37.56C60.943 38.28 59.8364 38.9467 58.5297 39.56C57.2497 40.1733 56.143 40.48 55.2097 40.48ZM66.2347 40.16C64.0214 40.16 62.9147 38.9333 62.9147 36.48C62.9147 35.8933 63.1814 34.2 63.7147 31.4C64.248 28.6 64.5147 26.2667 64.5147 24.4C64.5147 24 64.4614 23.6267 64.3547 23.28C65.7947 22.72 67.768 22.44 70.2747 22.44C70.408 22.8133 70.4747 23.4533 70.4747 24.36C70.4747 25.2667 70.1814 27.08 69.5947 29.8C69.008 32.52 68.7147 34.2933 68.7147 35.12C68.7147 35.9467 68.928 36.36 69.3547 36.36C70.528 36.36 71.6614 35.9467 72.7547 35.12C72.8347 34.1333 73.368 30.12 74.3547 23.08C75.288 22.7067 76.968 22.52 79.3947 22.52H80.1547C79.8347 23.7733 79.3014 26.9467 78.5547 32.04C77.8347 37.1067 77.3147 40.32 76.9947 41.68C76.6747 43.04 76.2347 44.24 75.6747 45.28C75.1414 46.32 74.4747 47.0933 73.6747 47.6C72.9014 48.1333 72.1147 48.4933 71.3147 48.68C70.5147 48.8667 69.4747 48.96 68.1947 48.96C66.9414 48.96 65.7414 48.5467 64.5947 47.72C63.4747 46.92 62.9147 46.2267 62.9147 45.64C62.9147 45.2667 63.3814 44.6933 64.3147 43.92C65.2747 43.1467 66.0747 42.6667 66.7147 42.48C68.0747 43.84 69.0747 45.32 69.7147 46.92C70.408 46.92 71.0214 46.0933 71.5547 44.44C72.088 42.7867 72.448 40.36 72.6347 37.16C71.9947 37.8 71.0214 38.4667 69.7147 39.16C68.408 39.8267 67.248 40.16 66.2347 40.16ZM80.8759 33.08C80.8759 29.7467 81.8759 27.12 83.8759 25.2C85.9026 23.2533 88.1959 22.28 90.7559 22.28C92.3293 22.28 93.6226 22.6667 94.6359 23.44C95.6493 24.2133 96.1559 25.2533 96.1559 26.56C96.1559 27.84 95.8226 28.92 95.1559 29.8C94.5159 30.68 93.7293 31.36 92.7959 31.84C90.9026 32.7733 89.1693 33.36 87.5959 33.6L86.6359 33.72C86.8226 36.2267 87.8493 37.48 89.7159 37.48C90.3559 37.48 91.0359 37.32 91.7559 37C92.4759 36.68 93.0359 36.36 93.4359 36.04L94.0359 35.56L94.9959 36.84C94.7826 37.1333 94.3559 37.52 93.7159 38C93.0759 38.48 92.4759 38.88 91.9159 39.2C90.3693 40.0533 88.6759 40.48 86.8359 40.48C84.9959 40.48 83.5426 39.8267 82.4759 38.52C81.4093 37.2133 80.8759 35.4 80.8759 33.08ZM86.5959 31.76C87.9559 31.52 89.0359 30.9467 89.8359 30.04C90.6359 29.1333 91.0359 27.96 91.0359 26.52C91.0359 25.08 90.6093 24.36 89.7559 24.36C88.7426 24.36 87.9559 25.2267 87.3959 26.96C86.8626 28.6667 86.5959 30.2667 86.5959 31.76ZM102.613 40.48C100.773 40.48 99.3325 39.84 98.2925 38.56C97.2525 37.2533 96.7325 35.44 96.7325 33.12C96.7325 30.16 97.5192 27.6133 99.0925 25.48C100.693 23.3467 102.893 22.28 105.693 22.28L107.133 22.36C107.586 22.12 108.093 22 108.653 22C110.759 22 111.813 23.9867 111.813 27.96C112.906 27.9067 114.013 27.76 115.133 27.52L115.773 27.36L116.012 28.92C115.133 29.2933 113.946 29.6267 112.453 29.92L111.653 30.08C111.146 32.88 110.119 35.32 108.573 37.4C107.026 39.4533 105.039 40.48 102.613 40.48ZM104.773 37.04C105.893 37.04 106.893 36.32 107.773 34.88C108.679 33.44 109.306 31.92 109.653 30.32C106.799 30.32 105.373 29.2533 105.373 27.12C105.373 26.2667 105.546 25.4667 105.893 24.72L106.092 24.32C105.986 24.2667 105.853 24.24 105.693 24.24C105.533 24.24 105.413 24.2667 105.333 24.32C104.666 24.7467 104.039 25.7467 103.453 27.32C102.866 28.8933 102.573 30.6933 102.573 32.72C102.573 35.6 103.306 37.04 104.773 37.04ZM118.201 22.28L125.841 22.6C126.694 22.6 127.508 22.56 128.281 22.48L128.641 23.76L127.881 24.64C126.441 26.3733 124.841 28.4533 123.081 30.88C121.321 33.28 120.361 34.5867 120.201 34.8C122.654 35.68 124.508 36.12 125.761 36.12C126.161 36.12 126.441 36.04 126.601 35.88C126.841 35.64 127.148 35.12 127.521 34.32L128.721 34.6C128.534 37.6133 127.921 39.5333 126.881 40.36C126.374 40.76 125.748 40.96 125.001 40.96C124.254 40.96 123.054 40.5067 121.401 39.6C119.774 38.6667 118.454 38.0667 117.441 37.8C116.321 39.32 115.548 40.08 115.121 40.08C114.694 40.08 114.161 39.7333 113.521 39.04C112.881 38.32 112.561 37.76 112.561 37.36C112.561 36.96 112.974 36.28 113.801 35.32C114.654 34.3333 115.534 33.84 116.441 33.84C116.628 33.84 116.774 33.8533 116.881 33.88C119.041 31.7733 120.988 29.3867 122.721 26.72C120.428 26.7467 118.828 26.8267 117.921 26.96C117.014 27.0667 116.134 27.36 115.281 27.84C115.068 26.9067 114.961 25.9467 114.961 24.96C114.961 23.9467 115.001 23.2267 115.081 22.8C115.428 22.4533 116.468 22.28 118.201 22.28ZM154.811 40.12H154.051C154.051 38.8667 154.425 36.4667 155.171 32.92C155.945 29.3733 156.331 27.36 156.331 26.88C156.331 26 155.958 25.0667 155.211 24.08L154.851 23.6L154.891 23.08C156.331 22.68 158.638 22.48 161.811 22.48C162.158 22.9333 162.345 23.76 162.371 24.96C164.691 23.1733 166.651 22.28 168.251 22.28C169.211 22.28 169.971 22.6133 170.531 23.28C171.118 23.9467 171.411 24.7867 171.411 25.8C171.411 26.7867 171.105 28.5067 170.491 30.96C169.878 33.4133 169.571 35.0667 169.571 35.92C169.571 36.7467 169.678 37.16 169.891 37.16C170.051 37.16 170.611 36.9067 171.571 36.4L172.051 36.16L172.771 37.56C172.531 37.7733 172.211 38.04 171.811 38.36C171.411 38.68 170.665 39.12 169.571 39.68C168.505 40.2133 167.545 40.48 166.691 40.48C164.745 40.48 163.771 39.3733 163.771 37.16C163.771 36.2267 164.065 34.5067 164.651 32C165.265 29.4933 165.571 27.88 165.571 27.16C165.571 26.44 165.345 26.08 164.891 26.08C164.118 26.08 163.171 26.4133 162.051 27.08C161.971 27.5333 161.705 28.7333 161.251 30.68C160.318 34.8667 159.851 37.8267 159.851 39.56C158.918 39.9333 157.238 40.12 154.811 40.12ZM184.324 47.04C183.337 47.7067 182.39 48.1867 181.484 48.48C180.577 48.8 179.697 48.96 178.844 48.96C177.99 48.96 177.297 48.72 176.764 48.24C176.23 47.76 175.964 47.0667 175.964 46.16C175.964 45.28 176.537 44.44 177.684 43.64C178.83 42.84 179.964 42.2933 181.084 42L182.804 41.6L183.404 38.4C181.857 39.5733 180.364 40.16 178.924 40.16C177.51 40.16 176.35 39.6133 175.444 38.52C174.564 37.4267 174.124 35.68 174.124 33.28C174.124 30.1333 174.83 27.52 176.244 25.44C177.657 23.3333 179.524 22.28 181.844 22.28C183.15 22.28 184.444 22.6 185.724 23.24C187.084 22.76 188.55 22.52 190.124 22.52L190.964 22.56C191.044 22.88 191.084 23.3333 191.084 23.92C191.084 26.2667 190.244 31.5333 188.564 39.72C188.27 41.4 187.737 42.8667 186.964 44.12C186.19 45.4 185.31 46.3733 184.324 47.04ZM183.644 24.64C182.497 24.64 181.59 25.5733 180.924 27.44C180.257 29.28 179.924 31.3333 179.924 33.6C179.924 35.84 180.43 36.96 181.444 36.96C182.11 36.96 182.897 36.7067 183.804 36.2C184.55 31.72 185.084 28.0267 185.404 25.12C184.657 24.8 184.07 24.64 183.644 24.64ZM177.764 46.08C177.764 46.5867 178.057 46.84 178.644 46.84C179.257 46.84 179.924 46.4933 180.644 45.8C181.364 45.1333 181.937 44.3067 182.364 43.32C181.484 43.4267 180.497 43.7467 179.404 44.28C178.31 44.84 177.764 45.44 177.764 46.08Z" fill="#0099DD"/>
<path fill-rule="evenodd" clip-rule="evenodd" d="M134 15H133.877L133.757 15.0299L131.757 15.5299L131.413 15.616L131.2 15.9L129.7 17.9L129.683 17.9222L129.668 17.9453L128.668 19.4453L128.633 19.4971L128.606 19.5528L127.606 21.5528L127.574 21.6164L127.551 21.6838L127.051 23.1838L127 23.3377V23.5V25V29.5V32V32.099L127.019 32.1961L127.519 34.6961L127.546 34.8274L127.606 34.9472L128.606 36.9472L128.633 37.0029L128.668 37.0547L129.668 38.5547L129.723 38.6371L129.793 38.7071L130.793 39.7071L130.908 39.8219L131.053 39.8944L132.053 40.3944L132.264 40.5H132.5H135.448L134.785 41.2954L131.349 44.2407L132.651 45.7593L136.151 42.7593L136.215 42.7046L136.268 42.6402L138.768 39.6402L138.843 39.551L138.894 39.4472L140.894 35.4472L140.936 35.3641L140.962 35.2747L141.962 31.7747L141.966 31.7587L141.97 31.7425C142.058 31.3914 142.188 30.8207 142.296 30.2308C142.401 29.6601 142.5 28.9988 142.5 28.5V28.4953V28.4906V28.4858V28.4811V28.4763V28.4714V28.4666V28.4617V28.4568V28.4519V28.447V28.442V28.437V28.432V28.427V28.4219V28.4169V28.4118V28.4066V28.4015V28.3963V28.3911V28.3859V28.3807V28.3754V28.3701V28.3648V28.3595V28.3542V28.3488V28.3434V28.338V28.3326V28.3271V28.3217V28.3162V28.3106V28.3051V28.2995V28.294V28.2884V28.2828V28.2771V28.2715V28.2658V28.2601V28.2543V28.2486V28.2428V28.2371V28.2313V28.2254V28.2196V28.2137V28.2079V28.202V28.196V28.1901V28.1842V28.1782V28.1722V28.1662V28.1602V28.1541V28.148V28.1419V28.1358V28.1297V28.1236V28.1174V28.1113V28.1051V28.0988V28.0926V28.0864V28.0801V28.0738V28.0675V28.0612V28.0549V28.0485V28.0422V28.0358V28.0294V28.023V28.0165V28.0101V28.0036V27.9972V27.9907V27.9841V27.9776V27.9711V27.9645V27.9579V27.9513V27.9447V27.9381V27.9315V27.9248V27.9182V27.9115V27.9048V27.8981V27.8913V27.8846V27.8778V27.8711V27.8643V27.8575V27.8507V27.8439V27.837V27.8302V27.8233V27.8164V27.8095V27.8026V27.7957V27.7888V27.7818V27.7748V27.7679V27.7609V27.7539V27.7469V27.7399V27.7328V27.7258V27.7187V27.7116V27.7045V27.6974V27.6903V27.6832V27.6761V27.6689V27.6618V27.6546V27.6474V27.6402V27.633V27.6258V27.6186V27.6114V27.6041V27.5969V27.5896V27.5823V27.575V27.5677V27.5604V27.5531V27.5458V27.5384V27.5311V27.5237V27.5164V27.509V27.5016V27.4942V27.4868V27.4794V27.4719V27.4645V27.4571V27.4496V27.4422V27.4347V27.4272V27.4197V27.4122V27.4047V27.3972V27.3897V27.3822V27.3746V27.3671V27.3595V27.352V27.3444V27.3369V27.3293V27.3217V27.3141V27.3065V27.2989V27.2913V27.2836V27.276V27.2684V27.2607V27.2531V27.2454V27.2378V27.2301V27.2224V27.2148V27.2071V27.1994V27.1917V27.184V27.1763V27.1686V27.1609V27.1531V27.1454V27.1377V27.1299V27.1222V27.1144V27.1067V27.0989V27.0912V27.0834V27.0756V27.0679V27.0601V27.0523V27.0445V27.0367V27.0289V27.0212V27.0134V27.0056V26.9977V26.9899V26.9821V26.9743V26.9665V26.9587V26.9508V26.943V26.9352V26.9274V26.9195V26.9117V26.9039V26.896V26.8882V26.8803V26.8725V26.8646V26.8568V26.8489V26.8411V26.8332V26.8254V26.8175V26.8097V26.8018V26.7939V26.7861V26.7782V26.7704V26.7625V26.7546V26.7468V26.7389V26.7311V26.7232V26.7153V26.7075V26.6996V26.6917V26.6839V26.676V26.6682V26.6603V26.6524V26.6446V26.6367V26.6289V26.621V26.6132V26.6053V26.5975V26.5896V26.5818V26.5739V26.5661V26.5583V26.5504V26.5426V26.5347V26.5269V26.5191V26.5113V26.5034V26.4956V26.4878V26.48V26.4722V26.4644V26.4565V26.4487V26.4409V26.4331V26.4254V26.4176V26.4098V26.402V26.3942V26.3864V26.3787V26.3709V26.3632V26.3554V26.3476V26.3399V26.3322V26.3244V26.3167V26.309V26.3012V26.2935V26.2858V26.2781V26.2704V26.2627V26.255V26.2473V26.2396V26.232V26.2243V26.2166V26.209V26.2013V26.1937V26.1861V26.1784V26.1708V26.1632V26.1556V26.148V26.1404V26.1328V26.1252V26.1176V26.1101V26.1025V26.095V26.0874V26.0799V26.0724V26.0648V26.0573V26.0498V26.0423V26.0348V26.0274V26.0199V26.0124V26.005V25.9975V25.9901V25.9827V25.9753V25.9679V25.9605V25.9531V25.9457V25.9383V25.931V25.9236V25.9163V25.9089V25.9016V25.8943V25.887V25.8797V25.8724V25.8652V25.8579V25.8507V25.8434V25.8362V25.829V25.8218V25.8146V25.8074V25.8002V25.7931V25.7859V25.7788V25.7717V25.7646V25.7575V25.7504V25.7433V25.7362V25.7292V25.7221V25.7151V25.7081V25.7011V25.6941V25.6871V25.6802V25.6732V25.6663V25.6594V25.6525V25.6456V25.6387V25.6318V25.625V25.6181V25.6113V25.6045V25.5977V25.5909V25.5841V25.5774V25.5706V25.5639V25.5572V25.5505V25.5438V25.5371V25.5305V25.5238V25.5172V25.5106V25.504V25.4974V25.4909V25.4843V25.4778V25.4713V25.4648V25.4583V25.4518V25.4454V25.4389V25.4325V25.4261V25.4197V25.4134V25.407V25.4007V25.3944V25.3881V25.3818V25.3755V25.3693V25.363V25.3568V25.3506V25.3445V25.3383V25.3322V25.326V25.3199V25.3138V25.3078V25.3017V25.2957V25.2897V25.2837V25.2777V25.2717V25.2658V25.2599V25.254V25.2481V25.2422V25.2364V25.2306V25.2248V25.219V25.2132V25.2075V25.2018V25.1961V25.1904V25.1847V25.1791V25.1734V25.1678V25.1623V25.1567V25.1512V25.1456V25.1401V25.1347V25.1292V25.1238V25.1184V25.113V25.1076V25.1023V25.0969V25.0916V25.0863V25.0811V25.0759V25.0706V25.0654V25.0603V25.0551V25.05V25.0449V25.0398V25.0348V25.0297V25.0247V25.0197V25.0148V25.0098V25.0049V25V24.8377L142.449 24.6838L141.449 21.6838L141.439 21.6559L141.428 21.6286L140.428 19.1286L140.413 19.09L140.394 19.0528L139.394 17.0528L139.322 16.9076L139.207 16.7929L138.207 15.7929L138.092 15.6781L137.947 15.6056L136.947 15.1056L136.736 15H136.5H134ZM135.401 38.5L137.324 38.1153L139.064 34.6359L140.034 31.2416C140.113 30.9244 140.231 30.4036 140.329 29.8692C140.432 29.3066 140.5 28.8012 140.5 28.5V28.4953V28.4906V28.4858V28.4811V28.4763V28.4714V28.4666V28.4617V28.4568V28.4519V28.447V28.442V28.437V28.432V28.427V28.4219V28.4169V28.4118V28.4066V28.4015V28.3963V28.3911V28.3859V28.3807V28.3754V28.3701V28.3648V28.3595V28.3542V28.3488V28.3434V28.338V28.3326V28.3271V28.3217V28.3162V28.3106V28.3051V28.2995V28.294V28.2884V28.2828V28.2771V28.2715V28.2658V28.2601V28.2543V28.2486V28.2428V28.2371V28.2313V28.2254V28.2196V28.2137V28.2079V28.202V28.196V28.1901V28.1842V28.1782V28.1722V28.1662V28.1602V28.1541V28.148V28.1419V28.1358V28.1297V28.1236V28.1174V28.1113V28.1051V28.0988V28.0926V28.0864V28.0801V28.0738V28.0675V28.0612V28.0549V28.0485V28.0422V28.0358V28.0294V28.023V28.0165V28.0101V28.0036V27.9972V27.9907V27.9841V27.9776V27.9711V27.9645V27.9579V27.9513V27.9447V27.9381V27.9315V27.9248V27.9182V27.9115V27.9048V27.8981V27.8913V27.8846V27.8778V27.8711V27.8643V27.8575V27.8507V27.8439V27.837V27.8302V27.8233V27.8164V27.8095V27.8026V27.7957V27.7888V27.7818V27.7748V27.7679V27.7609V27.7539V27.7469V27.7399V27.7328V27.7258V27.7187V27.7116V27.7045V27.6974V27.6903V27.6832V27.6761V27.6689V27.6618V27.6546V27.6474V27.6402V27.633V27.6258V27.6186V27.6114V27.6041V27.5969V27.5896V27.5823V27.575V27.5677V27.5604V27.5531V27.5458V27.5384V27.5311V27.5237V27.5164V27.509V27.5016V27.4942V27.4868V27.4794V27.4719V27.4645V27.4571V27.4496V27.4422V27.4347V27.4272V27.4197V27.4122V27.4047V27.3972V27.3897V27.3822V27.3746V27.3671V27.3595V27.352V27.3444V27.3369V27.3293V27.3217V27.3141V27.3065V27.2989V27.2913V27.2836V27.276V27.2684V27.2607V27.2531V27.2454V27.2378V27.2301V27.2224V27.2148V27.2071V27.1994V27.1917V27.184V27.1763V27.1686V27.1609V27.1531V27.1454V27.1377V27.1299V27.1222V27.1144V27.1067V27.0989V27.0912V27.0834V27.0756V27.0679V27.0601V27.0523V27.0445V27.0367V27.0289V27.0212V27.0134V27.0056V26.9977V26.9899V26.9821V26.9743V26.9665V26.9587V26.9508V26.943V26.9352V26.9274V26.9195V26.9117V26.9039V26.896V26.8882V26.8803V26.8725V26.8646V26.8568V26.8489V26.8411V26.8332V26.8254V26.8175V26.8097V26.8018V26.7939V26.7861V26.7782V26.7704V26.7625V26.7546V26.7468V26.7389V26.7311V26.7232V26.7153V26.7075V26.6996V26.6917V26.6839V26.676V26.6682V26.6603V26.6524V26.6446V26.6367V26.6289V26.621V26.6132V26.6053V26.5975V26.5896V26.5818V26.5739V26.5661V26.5583V26.5504V26.5426V26.5347V26.5269V26.5191V26.5113V26.5034V26.4956V26.4878V26.48V26.4722V26.4644V26.4565V26.4487V26.4409V26.4331V26.4254V26.4176V26.4098V26.402V26.3942V26.3864V26.3787V26.3709V26.3632V26.3554V26.3476V26.3399V26.3322V26.3244V26.3167V26.309V26.3012V26.2935V26.2858V26.2781V26.2704V26.2627V26.255V26.2473V26.2396V26.232V26.2243V26.2166V26.209V26.2013V26.1937V26.1861V26.1784V26.1708V26.1632V26.1556V26.148V26.1404V26.1328V26.1252V26.1176V26.1101V26.1025V26.095V26.0874V26.0799V26.0724V26.0648V26.0573V26.0498V26.0423V26.0348V26.0274V26.0199V26.0124V26.005V25.9975V25.9901V25.9827V25.9753V25.9679V25.9605V25.9531V25.9457V25.9383V25.931V25.9236V25.9163V25.9089V25.9016V25.8943V25.887V25.8797V25.8724V25.8652V25.8579V25.8507V25.8434V25.8362V25.829V25.8218V25.8146V25.8074V25.8002V25.7931V25.7859V25.7788V25.7717V25.7646V25.7575V25.7504V25.7433V25.7362V25.7292V25.7221V25.7151V25.7081V25.7011V25.6941V25.6871V25.6802V25.6732V25.6663V25.6594V25.6525V25.6456V25.6387V25.6318V25.625V25.6181V25.6113V25.6045V25.5977V25.5909V25.5841V25.5774V25.5706V25.5639V25.5572V25.5505V25.5438V25.5371V25.5305V25.5238V25.5172V25.5106V25.504V25.4974V25.4909V25.4843V25.4778V25.4713V25.4648V25.4583V25.4518V25.4454V25.4389V25.4325V25.4261V25.4197V25.4134V25.407V25.4007V25.3944V25.3881V25.3818V25.3755V25.3693V25.363V25.3568V25.3506V25.3445V25.3383V25.3322V25.326V25.3199V25.3138V25.3078V25.3017V25.2957V25.2897V25.2837V25.2777V25.2717V25.2658V25.2599V25.254V25.2481V25.2422V25.2364V25.2306V25.2248V25.219V25.2132V25.2075V25.2018V25.1961V25.1904V25.1847V25.1791V25.1734V25.1678V25.1623V25.1623L139.561 22.3441L138.587 19.91L137.678 18.0924L136.908 17.3219L136.264 17H134.123L132.587 17.384L131.317 19.0778L130.367 20.5029L129.426 22.3836L129 23.6623V25V29.5V31.901L129.454 34.1726L130.367 35.9971L131.277 37.3629L132.092 38.1781L132.736 38.5H135.401ZM135 23C133.895 23 133 23.8954 133 25V30C133 31.1046 133.895 32 135 32C136.105 32 137 31.1046 137 30V25C137 23.8954 136.105 23 135 23Z" fill="#0099DD"/>
<path fill-rule="evenodd" clip-rule="evenodd" d="M150.016 13H150.147L150.274 13.0339L152.145 13.5339L152.497 13.6278L152.706 13.9257L154.109 15.9257L154.124 15.9478L154.139 15.9708L155.074 17.4708L155.106 17.5218L155.131 17.5763L156.067 19.5763L156.096 19.6377L156.116 19.7023L156.584 21.2023L156.629 21.3477V21.5V23V27.5V30V30.0927L156.612 30.1839L156.144 32.6839L156.121 32.8087L156.067 32.9237L155.131 34.9237L155.106 34.9782L155.074 35.0292L154.139 36.5292L154.087 36.6119L154.02 36.6832L153.085 37.6832L152.972 37.804L152.826 37.8819L151.891 38.3819L151.67 38.5H151.419H148.711L149.35 39.3192L152.563 42.2627L151.211 43.7373L147.937 40.7373L147.876 40.6808L147.824 40.6148L145.485 37.6148L145.416 37.5259L145.368 37.4237L143.497 33.4237L143.46 33.3436L143.437 33.2582L142.502 29.7582L142.497 29.743L142.494 29.7277C142.342 29.0762 142 27.4332 142 26.5V26.4953V26.4906V26.4858V26.4811V26.4763V26.4714V26.4666V26.4617V26.4568V26.4519V26.447V26.442V26.437V26.432V26.427V26.4219V26.4169V26.4118V26.4066V26.4015V26.3963V26.3911V26.3859V26.3807V26.3754V26.3701V26.3648V26.3595V26.3542V26.3488V26.3434V26.338V26.3326V26.3271V26.3217V26.3162V26.3106V26.3051V26.2995V26.294V26.2884V26.2828V26.2771V26.2715V26.2658V26.2601V26.2543V26.2486V26.2428V26.2371V26.2313V26.2254V26.2196V26.2137V26.2079V26.202V26.196V26.1901V26.1842V26.1782V26.1722V26.1662V26.1602V26.1541V26.148V26.1419V26.1358V26.1297V26.1236V26.1174V26.1113V26.1051V26.0988V26.0926V26.0864V26.0801V26.0738V26.0675V26.0612V26.0549V26.0485V26.0422V26.0358V26.0294V26.023V26.0165V26.0101V26.0036V25.9972V25.9907V25.9841V25.9776V25.9711V25.9645V25.9579V25.9513V25.9447V25.9381V25.9315V25.9248V25.9182V25.9115V25.9048V25.8981V25.8913V25.8846V25.8778V25.8711V25.8643V25.8575V25.8507V25.8439V25.837V25.8302V25.8233V25.8164V25.8095V25.8026V25.7957V25.7888V25.7818V25.7748V25.7679V25.7609V25.7539V25.7469V25.7399V25.7328V25.7258V25.7187V25.7116V25.7045V25.6974V25.6903V25.6832V25.6761V25.6689V25.6618V25.6546V25.6474V25.6402V25.633V25.6258V25.6186V25.6114V25.6041V25.5969V25.5896V25.5823V25.575V25.5677V25.5604V25.5531V25.5458V25.5384V25.5311V25.5237V25.5164V25.509V25.5016V25.4942V25.4868V25.4794V25.4719V25.4645V25.4571V25.4496V25.4422V25.4347V25.4272V25.4197V25.4122V25.4047V25.3972V25.3897V25.3822V25.3746V25.3671V25.3595V25.352V25.3444V25.3369V25.3293V25.3217V25.3141V25.3065V25.2989V25.2913V25.2836V25.276V25.2684V25.2607V25.2531V25.2454V25.2378V25.2301V25.2224V25.2148V25.2071V25.1994V25.1917V25.184V25.1763V25.1686V25.1609V25.1531V25.1454V25.1377V25.1299V25.1222V25.1144V25.1067V25.0989V25.0912V25.0834V25.0756V25.0679V25.0601V25.0523V25.0445V25.0367V25.0289V25.0212V25.0134V25.0056V24.9977V24.9899V24.9821V24.9743V24.9665V24.9587V24.9508V24.943V24.9352V24.9274V24.9195V24.9117V24.9039V24.896V24.8882V24.8803V24.8725V24.8646V24.8568V24.8489V24.8411V24.8332V24.8254V24.8175V24.8097V24.8018V24.7939V24.7861V24.7782V24.7704V24.7625V24.7546V24.7468V24.7389V24.7311V24.7232V24.7153V24.7075V24.6996V24.6917V24.6839V24.676V24.6682V24.6603V24.6524V24.6446V24.6367V24.6289V24.621V24.6132V24.6053V24.5975V24.5896V24.5818V24.5739V24.5661V24.5583V24.5504V24.5426V24.5347V24.5269V24.5191V24.5113V24.5034V24.4956V24.4878V24.48V24.4722V24.4644V24.4565V24.4487V24.4409V24.4331V24.4254V24.4176V24.4098V24.402V24.3942V24.3864V24.3787V24.3709V24.3632V24.3554V24.3476V24.3399V24.3322V24.3244V24.3167V24.309V24.3012V24.2935V24.2858V24.2781V24.2704V24.2627V24.255V24.2473V24.2396V24.232V24.2243V24.2166V24.209V24.2013V24.1937V24.1861V24.1784V24.1708V24.1632V24.1556V24.148V24.1404V24.1328V24.1252V24.1176V24.1101V24.1025V24.095V24.0874V24.0799V24.0724V24.0648V24.0573V24.0498V24.0423V24.0348V24.0274V24.0199V24.0124V24.005V23.9975V23.9901V23.9827V23.9753V23.9679V23.9605V23.9531V23.9457V23.9383V23.931V23.9236V23.9163V23.9089V23.9016V23.8943V23.887V23.8797V23.8724V23.8652V23.8579V23.8507V23.8434V23.8362V23.829V23.8218V23.8146V23.8074V23.8002V23.7931V23.7859V23.7788V23.7717V23.7646V23.7575V23.7504V23.7433V23.7362V23.7292V23.7221V23.7151V23.7081V23.7011V23.6941V23.6871V23.6802V23.6732V23.6663V23.6594V23.6525V23.6456V23.6387V23.6318V23.625V23.6181V23.6113V23.6045V23.5977V23.5909V23.5841V23.5774V23.5706V23.5639V23.5572V23.5505V23.5438V23.5371V23.5305V23.5238V23.5172V23.5106V23.504V23.4974V23.4909V23.4843V23.4778V23.4713V23.4648V23.4583V23.4518V23.4454V23.4389V23.4325V23.4261V23.4197V23.4134V23.407V23.4007V23.3944V23.3881V23.3818V23.3755V23.3693V23.363V23.3568V23.3506V23.3445V23.3383V23.3322V23.326V23.3199V23.3138V23.3078V23.3017V23.2957V23.2897V23.2837V23.2777V23.2717V23.2658V23.2599V23.254V23.2481V23.2422V23.2364V23.2306V23.2248V23.219V23.2132V23.2075V23.2018V23.1961V23.1904V23.1847V23.1791V23.1734V23.1678V23.1623V23.1567V23.1512V23.1456V23.1401V23.1347V23.1292V23.1238V23.1184V23.113V23.1076V23.1023V23.0969V23.0916V23.0863V23.0811V23.0759V23.0706V23.0654V23.0603V23.0551V23.05V23.0449V23.0398V23.0348V23.0297V23.0247V23.0197V23.0148V23.0098V23.0049V23V22.8477L142.045 22.7023L142.981 19.7023L142.989 19.6757L142.999 19.6495L143.934 17.1495L143.948 17.1123L143.965 17.0763L144.901 15.0763L144.968 14.9327L145.076 14.8168L146.012 13.8168L146.125 13.696L146.27 13.6181L147.206 13.1181L147.427 13H147.677H150.016ZM148.718 36.5L146.969 36.126L145.346 32.6564L144.438 29.2572C144.278 28.5697 144 27.162 144 26.5V26.4953V26.4906V26.4858V26.4811V26.4763V26.4714V26.4666V26.4617V26.4568V26.4519V26.447V26.442V26.437V26.432V26.427V26.4219V26.4169V26.4118V26.4066V26.4015V26.3963V26.3911V26.3859V26.3807V26.3754V26.3701V26.3648V26.3595V26.3542V26.3488V26.3434V26.338V26.3326V26.3271V26.3217V26.3162V26.3106V26.3051V26.2995V26.294V26.2884V26.2828V26.2771V26.2715V26.2658V26.2601V26.2543V26.2486V26.2428V26.2371V26.2313V26.2254V26.2196V26.2137V26.2079V26.202V26.196V26.1901V26.1842V26.1782V26.1722V26.1662V26.1602V26.1541V26.148V26.1419V26.1358V26.1297V26.1236V26.1174V26.1113V26.1051V26.0988V26.0926V26.0864V26.0801V26.0738V26.0675V26.0612V26.0549V26.0485V26.0422V26.0358V26.0294V26.023V26.0165V26.0101V26.0036V25.9972V25.9907V25.9841V25.9776V25.9711V25.9645V25.9579V25.9513V25.9447V25.9381V25.9315V25.9248V25.9182V25.9115V25.9048V25.8981V25.8913V25.8846V25.8778V25.8711V25.8643V25.8575V25.8507V25.8439V25.837V25.8302V25.8233V25.8164V25.8095V25.8026V25.7957V25.7888V25.7818V25.7748V25.7679V25.7609V25.7539V25.7469V25.7399V25.7328V25.7258V25.7187V25.7116V25.7045V25.6974V25.6903V25.6832V25.6761V25.6689V25.6618V25.6546V25.6474V25.6402V25.633V25.6258V25.6186V25.6114V25.6041V25.5969V25.5896V25.5823V25.575V25.5677V25.5604V25.5531V25.5458V25.5384V25.5311V25.5237V25.5164V25.509V25.5016V25.4942V25.4868V25.4794V25.4719V25.4645V25.4571V25.4496V25.4422V25.4347V25.4272V25.4197V25.4122V25.4047V25.3972V25.3897V25.3822V25.3746V25.3671V25.3595V25.352V25.3444V25.3369V25.3293V25.3217V25.3141V25.3065V25.2989V25.2913V25.2836V25.276V25.2684V25.2607V25.2531V25.2454V25.2378V25.2301V25.2224V25.2148V25.2071V25.1994V25.1917V25.184V25.1763V25.1686V25.1609V25.1531V25.1454V25.1377V25.1299V25.1222V25.1144V25.1067V25.0989V25.0912V25.0834V25.0756V25.0679V25.0601V25.0523V25.0445V25.0367V25.0289V25.0212V25.0134V25.0056V24.9977V24.9899V24.9821V24.9743V24.9665V24.9587V24.9508V24.943V24.9352V24.9274V24.9195V24.9117V24.9039V24.896V24.8882V24.8803V24.8725V24.8646V24.8568V24.8489V24.8411V24.8332V24.8254V24.8175V24.8097V24.8018V24.7939V24.7861V24.7782V24.7704V24.7625V24.7546V24.7468V24.7389V24.7311V24.7232V24.7153V24.7075V24.6996V24.6917V24.6839V24.676V24.6682V24.6603V24.6524V24.6446V24.6367V24.6289V24.621V24.6132V24.6053V24.5975V24.5896V24.5818V24.5739V24.5661V24.5583V24.5504V24.5426V24.5347V24.5269V24.5191V24.5113V24.5034V24.4956V24.4878V24.48V24.4722V24.4644V24.4565V24.4487V24.4409V24.4331V24.4254V24.4176V24.4098V24.402V24.3942V24.3864V24.3787V24.3709V24.3632V24.3554V24.3476V24.3399V24.3322V24.3244V24.3167V24.309V24.3012V24.2935V24.2858V24.2781V24.2704V24.2627V24.255V24.2473V24.2396V24.232V24.2243V24.2166V24.209V24.2013V24.1937V24.1861V24.1784V24.1708V24.1632V24.1556V24.148V24.1404V24.1328V24.1252V24.1176V24.1101V24.1025V24.095V24.0874V24.0799V24.0724V24.0648V24.0573V24.0498V24.0423V24.0348V24.0274V24.0199V24.0124V24.005V23.9975V23.9901V23.9827V23.9753V23.9679V23.9605V23.9531V23.9457V23.9383V23.931V23.9236V23.9163V23.9089V23.9016V23.8943V23.887V23.8797V23.8724V23.8652V23.8579V23.8507V23.8434V23.8362V23.829V23.8218V23.8146V23.8074V23.8002V23.7931V23.7859V23.7788V23.7717V23.7646V23.7575V23.7504V23.7433V23.7362V23.7292V23.7221V23.7151V23.7081V23.7011V23.6941V23.6871V23.6802V23.6732V23.6663V23.6594V23.6525V23.6456V23.6387V23.6318V23.625V23.6181V23.6113V23.6045V23.5977V23.5909V23.5841V23.5774V23.5706V23.5639V23.5572V23.5505V23.5438V23.5371V23.5305V23.5238V23.5172V23.5106V23.504V23.4974V23.4909V23.4843V23.4778V23.4713V23.4648V23.4583V23.4518V23.4454V23.4389V23.4325V23.4261V23.4197V23.4134V23.407V23.4007V23.3944V23.3881V23.3818V23.3755V23.3693V23.363V23.3568V23.3506V23.3445V23.3383V23.3322V23.326V23.3199V23.3138V23.3078V23.3017V23.2957V23.2897V23.2837V23.2777V23.2717V23.2658V23.2599V23.254V23.2481V23.2422V23.2364V23.2306V23.2248V23.219V23.2132V23.2075V23.2018V23.1961V23.1904V23.1847V23.1791V23.1734V23.1678V23.1623V23.1567V23.1523L144.882 20.3243L145.793 17.8877L146.645 16.0673L147.359 15.304L147.928 15H149.885L151.277 15.3722L152.456 17.0522L153.345 18.4782L154.227 20.3623L154.629 21.6523V23V27.5V29.9073L154.202 32.1913L153.345 34.0218L152.493 35.3881L151.737 36.196L151.169 36.5H148.718ZM149.081 21C150.114 21 150.951 21.8377 150.951 22.871V28.129C150.951 29.1623 150.114 30 149.081 30C148.047 30 147.21 29.1623 147.21 28.129V22.871C147.21 21.8377 148.047 21 149.081 21Z" fill="#0099DD"/>
</svg>
