<svg width="37" height="40" viewBox="0 0 37 40" fill="none" xmlns="http://www.w3.org/2000/svg">
<path d="M36.4575 20C36.4575 30.9756 28.3176 39.85 18.3037 39.85C8.28995 39.85 0.15 30.9756 0.15 20C0.15 9.02436 8.28995 0.15 18.3037 0.15C28.3176 0.15 36.4575 9.02436 36.4575 20Z" fill="white" stroke="#E8E8E8" stroke-width="0.3"/>
<path fill-rule="evenodd" clip-rule="evenodd" d="M12.4925 8H12.3551L12.2227 8.03708L10.4381 8.53708L10.0823 8.63676L9.87684 8.94383L8.53838 10.9438L8.5236 10.9659L8.51001 10.9887L7.6177 12.4887L7.58776 12.5391L7.5639 12.5926L6.67159 14.5926L6.64496 14.6523L6.62633 14.7149L6.18017 16.2149L6.13867 16.3544V16.5V18V22.5V25V25.0885L6.15423 25.1757L6.60038 27.6757L6.62184 27.7959L6.67159 27.9074L7.5639 29.9074L7.58776 29.9609L7.6177 30.0113L8.51001 31.5113L8.55922 31.594L8.6233 31.6658L9.51561 32.6658L9.62698 32.7906L9.77292 32.8724L10.6652 33.3724L10.893 33.5H11.1541H13.7002L13.0782 34.3365L10.0151 37.2788L11.4007 38.7212L14.5237 35.7212L14.5838 35.6635L14.6334 35.5967L16.8642 32.5967L16.93 32.5082L16.975 32.4074L18.7596 28.4074L18.7943 28.3296L18.8154 28.247L19.7077 24.747L19.7114 24.7324L19.7147 24.7177C19.8602 24.0653 20.1848 22.4271 20.1848 21.5V21.4953V21.4906V21.4858V21.4811V21.4763V21.4714V21.4666V21.4617V21.4568V21.4519V21.447V21.442V21.437V21.432V21.427V21.4219V21.4169V21.4118V21.4066V21.4015V21.3963V21.3911V21.3859V21.3807V21.3754V21.3701V21.3648V21.3595V21.3542V21.3488V21.3434V21.338V21.3326V21.3271V21.3217V21.3162V21.3106V21.3051V21.2995V21.294V21.2884V21.2828V21.2771V21.2715V21.2658V21.2601V21.2543V21.2486V21.2428V21.2371V21.2313V21.2254V21.2196V21.2137V21.2079V21.202V21.196V21.1901V21.1842V21.1782V21.1722V21.1662V21.1602V21.1541V21.148V21.1419V21.1358V21.1297V21.1236V21.1174V21.1113V21.1051V21.0988V21.0926V21.0864V21.0801V21.0738V21.0675V21.0612V21.0549V21.0485V21.0422V21.0358V21.0294V21.023V21.0165V21.0101V21.0036V20.9972V20.9907V20.9841V20.9776V20.9711V20.9645V20.9579V20.9513V20.9447V20.9381V20.9315V20.9248V20.9182V20.9115V20.9048V20.8981V20.8913V20.8846V20.8778V20.8711V20.8643V20.8575V20.8507V20.8439V20.837V20.8302V20.8233V20.8164V20.8095V20.8026V20.7957V20.7888V20.7818V20.7748V20.7679V20.7609V20.7539V20.7469V20.7399V20.7328V20.7258V20.7187V20.7116V20.7045V20.6974V20.6903V20.6832V20.6761V20.6689V20.6618V20.6546V20.6474V20.6402V20.633V20.6258V20.6186V20.6114V20.6041V20.5969V20.5896V20.5823V20.575V20.5677V20.5604V20.5531V20.5458V20.5384V20.5311V20.5237V20.5164V20.509V20.5016V20.4942V20.4868V20.4794V20.4719V20.4645V20.4571V20.4496V20.4422V20.4347V20.4272V20.4197V20.4122V20.4047V20.3972V20.3897V20.3822V20.3746V20.3671V20.3595V20.352V20.3444V20.3369V20.3293V20.3217V20.3141V20.3065V20.2989V20.2913V20.2836V20.276V20.2684V20.2607V20.2531V20.2454V20.2378V20.2301V20.2224V20.2148V20.2071V20.1994V20.1917V20.184V20.1763V20.1686V20.1609V20.1531V20.1454V20.1377V20.1299V20.1222V20.1144V20.1067V20.0989V20.0912V20.0834V20.0756V20.0679V20.0601V20.0523V20.0445V20.0367V20.0289V20.0212V20.0134V20.0056V19.9977V19.9899V19.9821V19.9743V19.9665V19.9587V19.9508V19.943V19.9352V19.9274V19.9195V19.9117V19.9039V19.896V19.8882V19.8803V19.8725V19.8646V19.8568V19.8489V19.8411V19.8332V19.8254V19.8175V19.8097V19.8018V19.7939V19.7861V19.7782V19.7704V19.7625V19.7546V19.7468V19.7389V19.7311V19.7232V19.7153V19.7075V19.6996V19.6917V19.6839V19.676V19.6682V19.6603V19.6524V19.6446V19.6367V19.6289V19.621V19.6132V19.6053V19.5975V19.5896V19.5818V19.5739V19.5661V19.5583V19.5504V19.5426V19.5347V19.5269V19.5191V19.5113V19.5034V19.4956V19.4878V19.48V19.4722V19.4644V19.4565V19.4487V19.4409V19.4331V19.4254V19.4176V19.4098V19.402V19.3942V19.3864V19.3787V19.3709V19.3632V19.3554V19.3476V19.3399V19.3322V19.3244V19.3167V19.309V19.3012V19.2935V19.2858V19.2781V19.2704V19.2627V19.255V19.2473V19.2396V19.232V19.2243V19.2166V19.209V19.2013V19.1937V19.1861V19.1784V19.1708V19.1632V19.1556V19.148V19.1404V19.1328V19.1252V19.1176V19.1101V19.1025V19.095V19.0874V19.0799V19.0724V19.0648V19.0573V19.0498V19.0423V19.0348V19.0274V19.0199V19.0124V19.005V18.9975V18.9901V18.9827V18.9753V18.9679V18.9605V18.9531V18.9457V18.9383V18.931V18.9236V18.9163V18.9089V18.9016V18.8943V18.887V18.8797V18.8724V18.8652V18.8579V18.8507V18.8434V18.8362V18.829V18.8218V18.8146V18.8074V18.8002V18.7931V18.7859V18.7788V18.7717V18.7646V18.7575V18.7504V18.7433V18.7362V18.7292V18.7221V18.7151V18.7081V18.7011V18.6941V18.6871V18.6802V18.6732V18.6663V18.6594V18.6525V18.6456V18.6387V18.6318V18.625V18.6181V18.6113V18.6045V18.5977V18.5909V18.5841V18.5774V18.5706V18.5639V18.5572V18.5505V18.5438V18.5371V18.5305V18.5238V18.5172V18.5106V18.504V18.4974V18.4909V18.4843V18.4778V18.4713V18.4648V18.4583V18.4518V18.4454V18.4389V18.4325V18.4261V18.4197V18.4134V18.407V18.4007V18.3944V18.3881V18.3818V18.3755V18.3693V18.363V18.3568V18.3506V18.3445V18.3383V18.3322V18.326V18.3199V18.3138V18.3078V18.3017V18.2957V18.2897V18.2837V18.2777V18.2717V18.2658V18.2599V18.254V18.2481V18.2422V18.2364V18.2306V18.2248V18.219V18.2132V18.2075V18.2018V18.1961V18.1904V18.1847V18.1791V18.1734V18.1678V18.1623V18.1567V18.1512V18.1456V18.1401V18.1347V18.1292V18.1238V18.1184V18.113V18.1076V18.1023V18.0969V18.0916V18.0863V18.0811V18.0759V18.0706V18.0654V18.0603V18.0551V18.05V18.0449V18.0398V18.0348V18.0297V18.0247V18.0197V18.0148V18.0098V18.0049V18V17.8544L20.1433 17.7149L19.251 14.7149L19.2434 14.6892L19.2343 14.6638L18.342 12.1638L18.3291 12.1277L18.3134 12.0926L17.4211 10.0926L17.3577 9.95038L17.254 9.83421L16.3617 8.83421L16.2504 8.7094L16.1044 8.62762L15.2121 8.12762L14.9844 8H14.7233H12.4925ZM13.7203 31.5L15.3531 31.134L16.8984 27.6704L17.7659 24.2678C17.9183 23.5813 18.1848 22.1682 18.1848 21.5V21.4953V21.4906V21.4858V21.4811V21.4763V21.4714V21.4666V21.4617V21.4568V21.4519V21.447V21.442V21.437V21.432V21.427V21.4219V21.4169V21.4118V21.4066V21.4015V21.3963V21.3911V21.3859V21.3807V21.3754V21.3701V21.3648V21.3595V21.3542V21.3488V21.3434V21.338V21.3326V21.3271V21.3217V21.3162V21.3106V21.3051V21.2995V21.294V21.2884V21.2828V21.2771V21.2715V21.2658V21.2601V21.2543V21.2486V21.2428V21.2371V21.2313V21.2254V21.2196V21.2137V21.2079V21.202V21.196V21.1901V21.1842V21.1782V21.1722V21.1662V21.1602V21.1541V21.148V21.1419V21.1358V21.1297V21.1236V21.1174V21.1113V21.1051V21.0988V21.0926V21.0864V21.0801V21.0738V21.0675V21.0612V21.0549V21.0485V21.0422V21.0358V21.0294V21.023V21.0165V21.0101V21.0036V20.9972V20.9907V20.9841V20.9776V20.9711V20.9645V20.9579V20.9513V20.9447V20.9381V20.9315V20.9248V20.9182V20.9115V20.9048V20.8981V20.8913V20.8846V20.8778V20.8711V20.8643V20.8575V20.8507V20.8439V20.837V20.8302V20.8233V20.8164V20.8095V20.8026V20.7957V20.7888V20.7818V20.7748V20.7679V20.7609V20.7539V20.7469V20.7399V20.7328V20.7258V20.7187V20.7116V20.7045V20.6974V20.6903V20.6832V20.6761V20.6689V20.6618V20.6546V20.6474V20.6402V20.633V20.6258V20.6186V20.6114V20.6041V20.5969V20.5896V20.5823V20.575V20.5677V20.5604V20.5531V20.5458V20.5384V20.5311V20.5237V20.5164V20.509V20.5016V20.4942V20.4868V20.4794V20.4719V20.4645V20.4571V20.4496V20.4422V20.4347V20.4272V20.4197V20.4122V20.4047V20.3972V20.3897V20.3822V20.3746V20.3671V20.3595V20.352V20.3444V20.3369V20.3293V20.3217V20.3141V20.3065V20.2989V20.2913V20.2836V20.276V20.2684V20.2607V20.2531V20.2454V20.2378V20.2301V20.2224V20.2148V20.2071V20.1994V20.1917V20.184V20.1763V20.1686V20.1609V20.1531V20.1454V20.1377V20.1299V20.1222V20.1144V20.1067V20.0989V20.0912V20.0834V20.0756V20.0679V20.0601V20.0523V20.0445V20.0367V20.0289V20.0212V20.0134V20.0056V19.9977V19.9899V19.9821V19.9743V19.9665V19.9587V19.9508V19.943V19.9352V19.9274V19.9195V19.9117V19.9039V19.896V19.8882V19.8803V19.8725V19.8646V19.8568V19.8489V19.8411V19.8332V19.8254V19.8175V19.8097V19.8018V19.7939V19.7861V19.7782V19.7704V19.7625V19.7546V19.7468V19.7389V19.7311V19.7232V19.7153V19.7075V19.6996V19.6917V19.6839V19.676V19.6682V19.6603V19.6524V19.6446V19.6367V19.6289V19.621V19.6132V19.6053V19.5975V19.5896V19.5818V19.5739V19.5661V19.5583V19.5504V19.5426V19.5347V19.5269V19.5191V19.5113V19.5034V19.4956V19.4878V19.48V19.4722V19.4644V19.4565V19.4487V19.4409V19.4331V19.4254V19.4176V19.4098V19.402V19.3942V19.3864V19.3787V19.3709V19.3632V19.3554V19.3476V19.3399V19.3322V19.3244V19.3167V19.309V19.3012V19.2935V19.2858V19.2781V19.2704V19.2627V19.255V19.2473V19.2396V19.232V19.2243V19.2166V19.209V19.2013V19.1937V19.1861V19.1784V19.1708V19.1632V19.1556V19.148V19.1404V19.1328V19.1252V19.1176V19.1101V19.1025V19.095V19.0874V19.0799V19.0724V19.0648V19.0573V19.0498V19.0423V19.0348V19.0274V19.0199V19.0124V19.005V18.9975V18.9901V18.9827V18.9753V18.9679V18.9605V18.9531V18.9457V18.9383V18.931V18.9236V18.9163V18.9089V18.9016V18.8943V18.887V18.8797V18.8724V18.8652V18.8579V18.8507V18.8434V18.8362V18.829V18.8218V18.8146V18.8074V18.8002V18.7931V18.7859V18.7788V18.7717V18.7646V18.7575V18.7504V18.7433V18.7362V18.7292V18.7221V18.7151V18.7081V18.7011V18.6941V18.6871V18.6802V18.6732V18.6663V18.6594V18.6525V18.6456V18.6387V18.6318V18.625V18.6181V18.6113V18.6045V18.5977V18.5909V18.5841V18.5774V18.5706V18.5639V18.5572V18.5505V18.5438V18.5371V18.5305V18.5238V18.5172V18.5106V18.504V18.4974V18.4909V18.4843V18.4778V18.4713V18.4648V18.4583V18.4518V18.4454V18.4389V18.4325V18.4261V18.4197V18.4134V18.407V18.4007V18.3944V18.3881V18.3818V18.3755V18.3693V18.363V18.3568V18.3506V18.3445V18.3383V18.3322V18.326V18.3199V18.3138V18.3078V18.3017V18.2957V18.2897V18.2837V18.2777V18.2717V18.2658V18.2599V18.254V18.2481V18.2422V18.2364V18.2306V18.2248V18.219V18.2132V18.2075V18.2018V18.1961V18.1904V18.1847V18.1791V18.1734V18.1678V18.1623V18.1567V18.1512V18.1456V18.1456L17.3417 15.3108L16.4713 12.8723L15.6581 11.0496L14.9808 10.2906L14.4622 10H12.63L11.3335 10.3632L10.2153 12.0341L9.3665 13.4609L8.52469 15.3477L8.13867 16.6456V18V22.5V24.9115L8.54782 27.2041L9.36651 29.0391L10.1797 30.406L10.8965 31.2094L11.4151 31.5H13.7203ZM13.3848 16C12.3992 16 11.6002 16.799 11.6002 17.7846V23.2154C11.6002 24.201 12.3992 25 13.3848 25C14.3704 25 15.1694 24.201 15.1694 23.2154V17.7846C15.1694 16.799 14.3704 16 13.3848 16Z" fill="#0099DD"/>
<path fill-rule="evenodd" clip-rule="evenodd" d="M26.7836 6H26.9301L27.0705 6.04204L28.7399 6.54204L29.1008 6.6501L29.3006 6.96936L30.5527 8.96936L30.5664 8.99121L30.579 9.01373L31.4137 10.5137L31.4411 10.5629L31.4627 10.6148L32.2975 12.6148L32.3214 12.6721L32.338 12.7319L32.7554 14.2319L32.792 14.3635V14.5V16V20.5V23V23.0829L32.7783 23.1647L32.361 25.6647L32.342 25.7786L32.2975 25.8852L31.4627 27.8852L31.4411 27.9371L31.4137 27.9863L30.579 29.4863L30.5332 29.5685L30.4728 29.6408L29.6381 30.6408L29.5296 30.7708L29.3843 30.8579L28.5495 31.3579L28.3122 31.5H28.0357H25.7062L26.3053 32.3613L29.1694 35.3023L27.7366 36.6977L24.815 33.6977L24.7576 33.6387L24.7105 33.571L22.6237 30.571L22.5628 30.4835L22.5218 30.3852L20.8523 26.3852L20.8211 26.3106L20.8024 26.232L19.9677 22.732L19.9644 22.7182L19.9615 22.7043C19.8251 22.0507 19.523 20.419 19.523 19.5V19.4953V19.4906V19.4858V19.4811V19.4763V19.4714V19.4666V19.4617V19.4568V19.4519V19.447V19.442V19.437V19.432V19.427V19.4219V19.4169V19.4118V19.4066V19.4015V19.3963V19.3911V19.3859V19.3807V19.3754V19.3701V19.3648V19.3595V19.3542V19.3488V19.3434V19.338V19.3326V19.3271V19.3217V19.3162V19.3106V19.3051V19.2995V19.294V19.2884V19.2828V19.2771V19.2715V19.2658V19.2601V19.2543V19.2486V19.2428V19.2371V19.2313V19.2254V19.2196V19.2137V19.2079V19.202V19.196V19.1901V19.1842V19.1782V19.1722V19.1662V19.1602V19.1541V19.148V19.1419V19.1358V19.1297V19.1236V19.1174V19.1113V19.1051V19.0988V19.0926V19.0864V19.0801V19.0738V19.0675V19.0612V19.0549V19.0485V19.0422V19.0358V19.0294V19.023V19.0165V19.0101V19.0036V18.9972V18.9907V18.9841V18.9776V18.9711V18.9645V18.9579V18.9513V18.9447V18.9381V18.9315V18.9248V18.9182V18.9115V18.9048V18.8981V18.8913V18.8846V18.8778V18.8711V18.8643V18.8575V18.8507V18.8439V18.837V18.8302V18.8233V18.8164V18.8095V18.8026V18.7957V18.7888V18.7818V18.7748V18.7679V18.7609V18.7539V18.7469V18.7399V18.7328V18.7258V18.7187V18.7116V18.7045V18.6974V18.6903V18.6832V18.6761V18.6689V18.6618V18.6546V18.6474V18.6402V18.633V18.6258V18.6186V18.6114V18.6041V18.5969V18.5896V18.5823V18.575V18.5677V18.5604V18.5531V18.5458V18.5384V18.5311V18.5237V18.5164V18.509V18.5016V18.4942V18.4868V18.4794V18.4719V18.4645V18.4571V18.4496V18.4422V18.4347V18.4272V18.4197V18.4122V18.4047V18.3972V18.3897V18.3822V18.3746V18.3671V18.3595V18.352V18.3444V18.3369V18.3293V18.3217V18.3141V18.3065V18.2989V18.2913V18.2836V18.276V18.2684V18.2607V18.2531V18.2454V18.2378V18.2301V18.2224V18.2148V18.2071V18.1994V18.1917V18.184V18.1763V18.1686V18.1609V18.1531V18.1454V18.1377V18.1299V18.1222V18.1144V18.1067V18.0989V18.0912V18.0834V18.0756V18.0679V18.0601V18.0523V18.0445V18.0367V18.0289V18.0212V18.0134V18.0056V17.9977V17.9899V17.9821V17.9743V17.9665V17.9587V17.9508V17.943V17.9352V17.9274V17.9195V17.9117V17.9039V17.896V17.8882V17.8803V17.8725V17.8646V17.8568V17.8489V17.8411V17.8332V17.8254V17.8175V17.8097V17.8018V17.7939V17.7861V17.7782V17.7704V17.7625V17.7546V17.7468V17.7389V17.7311V17.7232V17.7153V17.7075V17.6996V17.6917V17.6839V17.676V17.6682V17.6603V17.6524V17.6446V17.6367V17.6289V17.621V17.6132V17.6053V17.5975V17.5896V17.5818V17.5739V17.5661V17.5583V17.5504V17.5426V17.5347V17.5269V17.5191V17.5113V17.5034V17.4956V17.4878V17.48V17.4722V17.4644V17.4565V17.4487V17.4409V17.4331V17.4254V17.4176V17.4098V17.402V17.3942V17.3864V17.3787V17.3709V17.3632V17.3554V17.3476V17.3399V17.3322V17.3244V17.3167V17.309V17.3012V17.2935V17.2858V17.2781V17.2704V17.2627V17.255V17.2473V17.2396V17.232V17.2243V17.2166V17.209V17.2013V17.1937V17.1861V17.1784V17.1708V17.1632V17.1556V17.148V17.1404V17.1328V17.1252V17.1176V17.1101V17.1025V17.095V17.0874V17.0799V17.0724V17.0648V17.0573V17.0498V17.0423V17.0348V17.0274V17.0199V17.0124V17.005V16.9975V16.9901V16.9827V16.9753V16.9679V16.9605V16.9531V16.9457V16.9383V16.931V16.9236V16.9163V16.9089V16.9016V16.8943V16.887V16.8797V16.8724V16.8652V16.8579V16.8507V16.8434V16.8362V16.829V16.8218V16.8146V16.8074V16.8002V16.7931V16.7859V16.7788V16.7717V16.7646V16.7575V16.7504V16.7433V16.7362V16.7292V16.7221V16.7151V16.7081V16.7011V16.6941V16.6871V16.6802V16.6732V16.6663V16.6594V16.6525V16.6456V16.6387V16.6318V16.625V16.6181V16.6113V16.6045V16.5977V16.5909V16.5841V16.5774V16.5706V16.5639V16.5572V16.5505V16.5438V16.5371V16.5305V16.5238V16.5172V16.5106V16.504V16.4974V16.4909V16.4843V16.4778V16.4713V16.4648V16.4583V16.4518V16.4454V16.4389V16.4325V16.4261V16.4197V16.4134V16.407V16.4007V16.3944V16.3881V16.3818V16.3755V16.3693V16.363V16.3568V16.3506V16.3445V16.3383V16.3322V16.326V16.3199V16.3138V16.3078V16.3017V16.2957V16.2897V16.2837V16.2777V16.2717V16.2658V16.2599V16.254V16.2481V16.2422V16.2364V16.2306V16.2248V16.219V16.2132V16.2075V16.2018V16.1961V16.1904V16.1847V16.1791V16.1734V16.1678V16.1623V16.1567V16.1512V16.1456V16.1401V16.1347V16.1292V16.1238V16.1184V16.113V16.1076V16.1023V16.0969V16.0916V16.0863V16.0811V16.0759V16.0706V16.0654V16.0603V16.0551V16.05V16.0449V16.0398V16.0348V16.0297V16.0247V16.0197V16.0148V16.0098V16.0049V16V15.8635L19.5596 15.7319L20.3943 12.7319L20.4012 12.7074L20.4092 12.6833L21.244 10.1833L21.2556 10.1486L21.2696 10.1148L22.1044 8.11483L22.1626 7.97527L22.2595 7.85918L23.0943 6.85918L23.2028 6.72916L23.3481 6.64212L24.1828 6.14212L24.4201 6H24.6967H26.7836ZM25.6496 29.5L24.1717 29.1459L22.7291 25.6894L21.9164 22.282C21.7741 21.5969 21.523 20.1765 21.523 19.5V19.4953V19.4906V19.4858V19.4811V19.4763V19.4714V19.4666V19.4617V19.4568V19.4519V19.447V19.442V19.437V19.432V19.427V19.4219V19.4169V19.4118V19.4066V19.4015V19.3963V19.3911V19.3859V19.3807V19.3754V19.3701V19.3648V19.3595V19.3542V19.3488V19.3434V19.338V19.3326V19.3271V19.3217V19.3162V19.3106V19.3051V19.2995V19.294V19.2884V19.2828V19.2771V19.2715V19.2658V19.2601V19.2543V19.2486V19.2428V19.2371V19.2313V19.2254V19.2196V19.2137V19.2079V19.202V19.196V19.1901V19.1842V19.1782V19.1722V19.1662V19.1602V19.1541V19.148V19.1419V19.1358V19.1297V19.1236V19.1174V19.1113V19.1051V19.0988V19.0926V19.0864V19.0801V19.0738V19.0675V19.0612V19.0549V19.0485V19.0422V19.0358V19.0294V19.023V19.0165V19.0101V19.0036V18.9972V18.9907V18.9841V18.9776V18.9711V18.9645V18.9579V18.9513V18.9447V18.9381V18.9315V18.9248V18.9182V18.9115V18.9048V18.8981V18.8913V18.8846V18.8778V18.8711V18.8643V18.8575V18.8507V18.8439V18.837V18.8302V18.8233V18.8164V18.8095V18.8026V18.7957V18.7888V18.7818V18.7748V18.7679V18.7609V18.7539V18.7469V18.7399V18.7328V18.7258V18.7187V18.7116V18.7045V18.6974V18.6903V18.6832V18.6761V18.6689V18.6618V18.6546V18.6474V18.6402V18.633V18.6258V18.6186V18.6114V18.6041V18.5969V18.5896V18.5823V18.575V18.5677V18.5604V18.5531V18.5458V18.5384V18.5311V18.5237V18.5164V18.509V18.5016V18.4942V18.4868V18.4794V18.4719V18.4645V18.4571V18.4496V18.4422V18.4347V18.4272V18.4197V18.4122V18.4047V18.3972V18.3897V18.3822V18.3746V18.3671V18.3595V18.352V18.3444V18.3369V18.3293V18.3217V18.3141V18.3065V18.2989V18.2913V18.2836V18.276V18.2684V18.2607V18.2531V18.2454V18.2378V18.2301V18.2224V18.2148V18.2071V18.1994V18.1917V18.184V18.1763V18.1686V18.1609V18.1531V18.1454V18.1377V18.1299V18.1222V18.1144V18.1067V18.0989V18.0912V18.0834V18.0756V18.0679V18.0601V18.0523V18.0445V18.0367V18.0289V18.0212V18.0134V18.0056V17.9977V17.9899V17.9821V17.9743V17.9665V17.9587V17.9508V17.943V17.9352V17.9274V17.9195V17.9117V17.9039V17.896V17.8882V17.8803V17.8725V17.8646V17.8568V17.8489V17.8411V17.8332V17.8254V17.8175V17.8097V17.8018V17.7939V17.7861V17.7782V17.7704V17.7625V17.7546V17.7468V17.7389V17.7311V17.7232V17.7153V17.7075V17.6996V17.6917V17.6839V17.676V17.6682V17.6603V17.6524V17.6446V17.6367V17.6289V17.621V17.6132V17.6053V17.5975V17.5896V17.5818V17.5739V17.5661V17.5583V17.5504V17.5426V17.5347V17.5269V17.5191V17.5113V17.5034V17.4956V17.4878V17.48V17.4722V17.4644V17.4565V17.4487V17.4409V17.4331V17.4254V17.4176V17.4098V17.402V17.3942V17.3864V17.3787V17.3709V17.3632V17.3554V17.3476V17.3399V17.3322V17.3244V17.3167V17.309V17.3012V17.2935V17.2858V17.2781V17.2704V17.2627V17.255V17.2473V17.2396V17.232V17.2243V17.2166V17.209V17.2013V17.1937V17.1861V17.1784V17.1708V17.1632V17.1556V17.148V17.1404V17.1328V17.1252V17.1176V17.1101V17.1025V17.095V17.0874V17.0799V17.0724V17.0648V17.0573V17.0498V17.0423V17.0348V17.0274V17.0199V17.0124V17.005V16.9975V16.9901V16.9827V16.9753V16.9679V16.9605V16.9531V16.9457V16.9383V16.931V16.9236V16.9163V16.9089V16.9016V16.8943V16.887V16.8797V16.8724V16.8652V16.8579V16.8507V16.8434V16.8362V16.829V16.8218V16.8146V16.8074V16.8002V16.7931V16.7859V16.7788V16.7717V16.7646V16.7575V16.7504V16.7433V16.7362V16.7292V16.7221V16.7151V16.7081V16.7011V16.6941V16.6871V16.6802V16.6732V16.6663V16.6594V16.6525V16.6456V16.6387V16.6318V16.625V16.6181V16.6113V16.6045V16.5977V16.5909V16.5841V16.5774V16.5706V16.5639V16.5572V16.5505V16.5438V16.5371V16.5305V16.5238V16.5172V16.5106V16.504V16.4974V16.4909V16.4843V16.4778V16.4713V16.4648V16.4583V16.4518V16.4454V16.4389V16.4325V16.4261V16.4197V16.4134V16.407V16.4007V16.3944V16.3881V16.3818V16.3755V16.3693V16.363V16.3568V16.3506V16.3445V16.3383V16.3322V16.326V16.3199V16.3138V16.3078V16.3017V16.2957V16.2897V16.2837V16.2777V16.2717V16.2658V16.2599V16.254V16.2481V16.2422V16.2364V16.2306V16.2248V16.219V16.2132V16.2075V16.2018V16.1961V16.1904V16.1847V16.1791V16.1734V16.1678V16.1623V16.1567V16.1512V16.1456V16.1401V16.1365L22.3143 13.2926L23.1294 10.8514L23.8918 9.02473L24.5211 8.27084L24.9733 8H26.637L27.8053 8.3499L28.8439 10.0088L29.6387 11.4371L30.4279 13.3279L30.792 14.6365V16V20.5V22.9171L30.4073 25.2214L29.6387 27.0629L28.8771 28.4315L28.2112 29.2292L27.7591 29.5H25.6496ZM25.949 14C26.871 14 27.6184 14.7475 27.6184 15.6695V21.3305C27.6184 22.2525 26.871 23 25.949 23C25.0269 23 24.2795 22.2525 24.2795 21.3305V15.6695C24.2795 14.7475 25.0269 14 25.949 14Z" fill="#0099DD"/>
</svg>
