<svg width="40" height="40" viewBox="0 0 40 40" fill="none" xmlns="http://www.w3.org/2000/svg">
<rect width="40" height="40" rx="20" fill="#F2F2F2"/>
<path fill-rule="evenodd" clip-rule="evenodd" d="M14 16C14 12.6863 16.6862 10 20 10C23.3137 10 26 12.6863 26 16C26 19.3137 23.3137 22 20 22C16.6862 22 14 19.3137 14 16Z" fill="#AFAFAF"/>
<path fill-rule="evenodd" clip-rule="evenodd" d="M9.00161 34.8071C9.10473 28.8208 13.9893 24 20 24C26.0108 24 30.8954 28.821 30.9983 34.8075C31.0051 35.2046 30.7764 35.568 30.4155 35.7336C27.2436 37.1891 23.7153 38 20.0004 38C16.2851 38 12.7565 37.1889 9.58438 35.7332C9.22349 35.5676 8.99477 35.2041 9.00161 34.8071Z" fill="#AFAFAF"/>
</svg>
